<svg xmlns="http://www.w3.org/2000/svg" width="26" height="15"><path fill="#FFF" d="M16.138 11.51c.956-.31 2.18 2.04 3.483 2.94.98.68 1.728.533 1.728.533l3.473-.05s1.816-.112.958-1.554c-.07-.12-.503-1.07-2.585-3.023-2.177-2.043-1.882-1.712.74-5.244 1.596-2.153 2.235-3.468 2.035-4.028-.192-.54-1.365-.4-1.365-.4l-3.915.03c-.38 0-.704.12-.85.515-.004.004-.622 1.666-1.446 3.08-1.74 2.988-2.436 3.147-2.724 2.96-.66-.433-.494-1.737-.494-2.664 0-2.897.432-4.105-.846-4.417-.427-.104-.74-.172-1.828-.182-1.392-.02-2.574 0-3.244.33-.445.222-.786.71-.58.74.26.034.844.16 1.156.585.4.552.39 1.79.39 1.79s.228 3.41-.54 3.833c-.53.29-1.25-.302-2.804-3.016-.793-1.388-1.392-2.922-1.392-2.922s-.116-.285-.326-.44c-.25-.186-.6-.245-.6-.245L.848.684S.29.7.085.946c-.182.218-.015.668-.015.668s2.91 6.88 6.203 10.347c3.02 3.183 6.452 2.972 6.452 2.972h1.555s.47-.054.71-.312c.223-.24.213-.69.213-.69s-.03-2.11.935-2.42z"/></svg>